<svg width="134" height="134" viewBox="0 0 134 134" xmlns="http://www.w3.org/2000/svg"><title>icon-doc-l</title><g fill="none" fill-rule="evenodd"><path d="M0 0h134v134H0z"/><path d="M21 1.998C21 .895 21.897 0 22.992 0h98.016c1.1 0 1.992.891 1.992 1.998v130.004a1.999 1.999 0 0 1-1.992 1.998H22.992c-1.1 0-1.992-.891-1.992-1.998V1.998z" fill="#E4E4E4"/><path d="M22 1.998A.999.999 0 0 1 23.006 1h97.988c.556 0 1.006.449 1.006.998v129.004a.999.999 0 0 1-1.006.998H23.006a1.003 1.003 0 0 1-1.006-.998V1.998z" fill="#FFF"/><path d="M36 44h75v5H36v-5zm0 13h75v5H36v-5zm0 13h75v5H36v-5zm0 13h75v5H36v-5zm0 13h75v5H36v-5z" fill="#EEE"/><path d="M11.893 39.904l54-5.785a1 1 0 0 1 1.107.994v73.774a1 1 0 0 1-1.107.994l-54-5.785A1 1 0 0 1 11 103.1V40.9a1 1 0 0 1 .893-.995z" fill="#3A74D1"/><path fill="#FFF" d="M45.158 74.256l4.73-17.732L56 56l-8.148 31-5.602-.47-4.583-17.474-4.584 16.721-5.602-.45L21 59.011l6.111-.48 3.065 15.526 4.435-16.262 6.111-.502z"/></g></svg>